<svg width="40" height="40" viewBox="0 0 40 40" fill="none" xmlns="http://www.w3.org/2000/svg">
<path d="M12.8876 25.8597H12.8894C12.8909 25.8597 12.8925 25.8594 12.894 25.8594H34.1406C34.6637 25.8594 35.1236 25.5124 35.2673 25.0095L39.9548 8.60321C40.0558 8.24951 39.985 7.86926 39.7638 7.57568C39.5422 7.2821 39.1959 7.10938 38.8281 7.10938H10.1849L9.34723 3.33954C9.2279 2.80334 8.75244 2.42188 8.20312 2.42188H1.17187C0.524597 2.42188 0 2.94647 0 3.59375C0 4.24103 0.524597 4.76562 1.17187 4.76562H7.26318C7.4115 5.43365 11.272 22.8061 11.4941 23.8055C10.2487 24.3469 9.375 25.5887 9.375 27.0312C9.375 28.9697 10.9521 30.5469 12.8906 30.5469H34.1406C34.7879 30.5469 35.3125 30.0223 35.3125 29.375C35.3125 28.7277 34.7879 28.2031 34.1406 28.2031H12.8906C12.2446 28.2031 11.7187 27.6773 11.7187 27.0312C11.7187 26.3861 12.2427 25.8612 12.8876 25.8597ZM37.2745 9.45312L33.2565 23.5156H13.8306L10.7056 9.45312H37.2745Z" fill="#EEE6E6"/>
<path d="M11.7188 34.0625C11.7188 36.001 13.2959 37.5781 15.2344 37.5781C17.1729 37.5781 18.75 36.001 18.75 34.0625C18.75 32.124 17.1729 30.5469 15.2344 30.5469C13.2959 30.5469 11.7188 32.124 11.7188 34.0625ZM15.2344 32.8906C15.8804 32.8906 16.4062 33.4164 16.4062 34.0625C16.4062 34.7086 15.8804 35.2344 15.2344 35.2344C14.5883 35.2344 14.0625 34.7086 14.0625 34.0625C14.0625 33.4164 14.5883 32.8906 15.2344 32.8906Z" fill="#EEE6E6"/>
<path d="M28.2812 34.0625C28.2812 36.001 29.8584 37.5781 31.7969 37.5781C33.7354 37.5781 35.3125 36.001 35.3125 34.0625C35.3125 32.124 33.7354 30.5469 31.7969 30.5469C29.8584 30.5469 28.2812 32.124 28.2812 34.0625ZM31.7969 32.8906C32.4429 32.8906 32.9688 33.4164 32.9688 34.0625C32.9688 34.7086 32.4429 35.2344 31.7969 35.2344C31.1508 35.2344 30.625 34.7086 30.625 34.0625C30.625 33.4164 31.1508 32.8906 31.7969 32.8906Z" fill="#EEE6E6"/>
</svg>
